<mxfile host="app.diagrams.net" agent="Mozilla/5.0 (Windows NT 10.0; Win64; x64) AppleWebKit/537.36 (KHTML, like Gecko) Chrome/130.0.0.0 Safari/537.36" version="24.7.17">
  <diagram name="Page-1" id="0MoOA7dqFpv-dawel8Oq">
    <mxGraphModel dx="2227" dy="1876" grid="1" gridSize="10" guides="1" tooltips="1" connect="1" arrows="1" fold="1" page="1" pageScale="1" pageWidth="827" pageHeight="1169" math="0" shadow="0">
      <root>
        <mxCell id="0" />
        <mxCell id="1" parent="0" />
        <mxCell id="vGQCpLOHaBzgd5Pzb7qW-1" value="Ipar" style="ellipse;whiteSpace=wrap;html=1;fontSize=10;" vertex="1" parent="1">
          <mxGeometry x="415" y="-150" width="66" height="30" as="geometry" />
        </mxCell>
        <mxCell id="vGQCpLOHaBzgd5Pzb7qW-168" style="edgeStyle=orthogonalEdgeStyle;rounded=0;orthogonalLoop=1;jettySize=auto;html=1;exitX=0;exitY=0.5;exitDx=0;exitDy=0;entryX=1;entryY=0.5;entryDx=0;entryDy=0;endArrow=none;endFill=0;" edge="1" parent="1" source="vGQCpLOHaBzgd5Pzb7qW-2" target="vGQCpLOHaBzgd5Pzb7qW-167">
          <mxGeometry relative="1" as="geometry" />
        </mxCell>
        <mxCell id="vGQCpLOHaBzgd5Pzb7qW-2" value="Gyár" style="ellipse;whiteSpace=wrap;html=1;fontSize=10;" vertex="1" parent="1">
          <mxGeometry x="-420" y="-30" width="60" height="30" as="geometry" />
        </mxCell>
        <mxCell id="vGQCpLOHaBzgd5Pzb7qW-6" value="Szakmunkás" style="ellipse;whiteSpace=wrap;html=1;fontSize=10;" vertex="1" parent="1">
          <mxGeometry x="220" y="-30" width="60" height="30" as="geometry" />
        </mxCell>
        <mxCell id="vGQCpLOHaBzgd5Pzb7qW-7" value="Gyakornok" style="ellipse;whiteSpace=wrap;html=1;fontSize=10;" vertex="1" parent="1">
          <mxGeometry x="585" y="-30" width="60" height="30" as="geometry" />
        </mxCell>
        <mxCell id="vGQCpLOHaBzgd5Pzb7qW-8" value="Megrendelő" style="ellipse;whiteSpace=wrap;html=1;fontSize=10;" vertex="1" parent="1">
          <mxGeometry x="965" y="-30" width="60" height="30" as="geometry" />
        </mxCell>
        <mxCell id="vGQCpLOHaBzgd5Pzb7qW-9" value="Rendelés" style="ellipse;whiteSpace=wrap;html=1;fontSize=10;" vertex="1" parent="1">
          <mxGeometry x="1306" y="-30" width="60" height="30" as="geometry" />
        </mxCell>
        <mxCell id="vGQCpLOHaBzgd5Pzb7qW-10" value="" style="endArrow=none;html=1;rounded=0;exitX=0.5;exitY=0;exitDx=0;exitDy=0;entryX=0;entryY=0.5;entryDx=0;entryDy=0;fontSize=10;" edge="1" parent="1" source="vGQCpLOHaBzgd5Pzb7qW-2" target="vGQCpLOHaBzgd5Pzb7qW-1">
          <mxGeometry width="50" height="50" relative="1" as="geometry">
            <mxPoint x="334" y="-10" as="sourcePoint" />
            <mxPoint x="340" y="-50" as="targetPoint" />
            <Array as="points" />
          </mxGeometry>
        </mxCell>
        <mxCell id="vGQCpLOHaBzgd5Pzb7qW-12" value="" style="endArrow=none;html=1;rounded=0;entryX=0;entryY=1;entryDx=0;entryDy=0;exitX=0.5;exitY=0;exitDx=0;exitDy=0;fontSize=10;" edge="1" parent="1" source="vGQCpLOHaBzgd5Pzb7qW-6" target="vGQCpLOHaBzgd5Pzb7qW-1">
          <mxGeometry width="50" height="50" relative="1" as="geometry">
            <mxPoint x="400" y="220" as="sourcePoint" />
            <mxPoint x="450" y="170" as="targetPoint" />
          </mxGeometry>
        </mxCell>
        <mxCell id="vGQCpLOHaBzgd5Pzb7qW-13" value="" style="endArrow=none;html=1;rounded=0;entryX=1;entryY=0.5;entryDx=0;entryDy=0;exitX=0.5;exitY=0;exitDx=0;exitDy=0;fontSize=10;" edge="1" parent="1" source="vGQCpLOHaBzgd5Pzb7qW-9" target="vGQCpLOHaBzgd5Pzb7qW-1">
          <mxGeometry width="50" height="50" relative="1" as="geometry">
            <mxPoint x="400" y="220" as="sourcePoint" />
            <mxPoint x="450" y="170" as="targetPoint" />
          </mxGeometry>
        </mxCell>
        <mxCell id="vGQCpLOHaBzgd5Pzb7qW-14" value="" style="endArrow=none;html=1;rounded=0;entryX=1;entryY=1;entryDx=0;entryDy=0;exitX=0.5;exitY=0;exitDx=0;exitDy=0;fontSize=10;" edge="1" parent="1" source="vGQCpLOHaBzgd5Pzb7qW-8" target="vGQCpLOHaBzgd5Pzb7qW-1">
          <mxGeometry width="50" height="50" relative="1" as="geometry">
            <mxPoint x="400" y="220" as="sourcePoint" />
            <mxPoint x="450" y="170" as="targetPoint" />
          </mxGeometry>
        </mxCell>
        <mxCell id="vGQCpLOHaBzgd5Pzb7qW-15" value="" style="endArrow=none;html=1;rounded=0;entryX=0.5;entryY=0;entryDx=0;entryDy=0;exitX=1;exitY=1;exitDx=0;exitDy=0;fontSize=10;" edge="1" parent="1" source="vGQCpLOHaBzgd5Pzb7qW-1" target="vGQCpLOHaBzgd5Pzb7qW-7">
          <mxGeometry width="50" height="50" relative="1" as="geometry">
            <mxPoint x="400" y="220" as="sourcePoint" />
            <mxPoint x="450" y="170" as="targetPoint" />
          </mxGeometry>
        </mxCell>
        <mxCell id="vGQCpLOHaBzgd5Pzb7qW-29" style="rounded=0;orthogonalLoop=1;jettySize=auto;html=1;exitX=0.5;exitY=1;exitDx=0;exitDy=0;entryX=0;entryY=0.5;entryDx=0;entryDy=0;endArrow=none;endFill=0;fontSize=10;" edge="1" parent="1" source="vGQCpLOHaBzgd5Pzb7qW-16" target="vGQCpLOHaBzgd5Pzb7qW-26">
          <mxGeometry relative="1" as="geometry" />
        </mxCell>
        <mxCell id="vGQCpLOHaBzgd5Pzb7qW-16" value="Név" style="ellipse;whiteSpace=wrap;html=1;fontSize=10;" vertex="1" parent="1">
          <mxGeometry x="-520" y="40" width="60" height="30" as="geometry" />
        </mxCell>
        <mxCell id="vGQCpLOHaBzgd5Pzb7qW-124" style="edgeStyle=orthogonalEdgeStyle;rounded=0;orthogonalLoop=1;jettySize=auto;html=1;exitX=0.5;exitY=1;exitDx=0;exitDy=0;entryX=0;entryY=0.5;entryDx=0;entryDy=0;endArrow=none;endFill=0;fontSize=10;" edge="1" parent="1" source="vGQCpLOHaBzgd5Pzb7qW-17" target="vGQCpLOHaBzgd5Pzb7qW-120">
          <mxGeometry relative="1" as="geometry" />
        </mxCell>
        <mxCell id="vGQCpLOHaBzgd5Pzb7qW-17" value="Házszám" style="ellipse;whiteSpace=wrap;html=1;fontSize=10;" vertex="1" parent="1">
          <mxGeometry x="-320" y="160" width="60" height="30" as="geometry" />
        </mxCell>
        <mxCell id="vGQCpLOHaBzgd5Pzb7qW-122" style="edgeStyle=orthogonalEdgeStyle;rounded=0;orthogonalLoop=1;jettySize=auto;html=1;exitX=0.5;exitY=1;exitDx=0;exitDy=0;entryX=0;entryY=0.5;entryDx=0;entryDy=0;endArrow=none;endFill=0;fontSize=10;" edge="1" parent="1" source="vGQCpLOHaBzgd5Pzb7qW-18" target="vGQCpLOHaBzgd5Pzb7qW-119">
          <mxGeometry relative="1" as="geometry" />
        </mxCell>
        <mxCell id="vGQCpLOHaBzgd5Pzb7qW-18" value="Város" style="ellipse;whiteSpace=wrap;html=1;fontSize=10;" vertex="1" parent="1">
          <mxGeometry x="-520" y="160" width="60" height="30" as="geometry" />
        </mxCell>
        <mxCell id="vGQCpLOHaBzgd5Pzb7qW-31" style="edgeStyle=orthogonalEdgeStyle;rounded=0;orthogonalLoop=1;jettySize=auto;html=1;exitX=0.5;exitY=1;exitDx=0;exitDy=0;endArrow=none;endFill=0;fontSize=10;" edge="1" parent="1" source="vGQCpLOHaBzgd5Pzb7qW-19" target="vGQCpLOHaBzgd5Pzb7qW-20">
          <mxGeometry relative="1" as="geometry" />
        </mxCell>
        <mxCell id="vGQCpLOHaBzgd5Pzb7qW-33" style="rounded=0;orthogonalLoop=1;jettySize=auto;html=1;exitX=0;exitY=1;exitDx=0;exitDy=0;entryX=0.5;entryY=0;entryDx=0;entryDy=0;endArrow=none;endFill=0;fontSize=10;" edge="1" parent="1" source="vGQCpLOHaBzgd5Pzb7qW-19" target="vGQCpLOHaBzgd5Pzb7qW-18">
          <mxGeometry relative="1" as="geometry">
            <mxPoint x="-390" y="100" as="targetPoint" />
          </mxGeometry>
        </mxCell>
        <mxCell id="vGQCpLOHaBzgd5Pzb7qW-19" value="Cím" style="ellipse;whiteSpace=wrap;html=1;fontSize=10;" vertex="1" parent="1">
          <mxGeometry x="-420" y="40" width="60" height="30" as="geometry" />
        </mxCell>
        <mxCell id="vGQCpLOHaBzgd5Pzb7qW-123" style="edgeStyle=orthogonalEdgeStyle;rounded=0;orthogonalLoop=1;jettySize=auto;html=1;exitX=0.5;exitY=1;exitDx=0;exitDy=0;entryX=0;entryY=0.5;entryDx=0;entryDy=0;endArrow=none;endFill=0;fontSize=10;" edge="1" parent="1" source="vGQCpLOHaBzgd5Pzb7qW-20" target="vGQCpLOHaBzgd5Pzb7qW-121">
          <mxGeometry relative="1" as="geometry" />
        </mxCell>
        <mxCell id="vGQCpLOHaBzgd5Pzb7qW-20" value="Utca" style="ellipse;whiteSpace=wrap;html=1;fontSize=10;" vertex="1" parent="1">
          <mxGeometry x="-420" y="160" width="60" height="30" as="geometry" />
        </mxCell>
        <mxCell id="vGQCpLOHaBzgd5Pzb7qW-30" style="rounded=0;orthogonalLoop=1;jettySize=auto;html=1;exitX=0.5;exitY=1;exitDx=0;exitDy=0;entryX=0;entryY=0.5;entryDx=0;entryDy=0;endArrow=none;endFill=0;fontSize=10;" edge="1" parent="1" source="vGQCpLOHaBzgd5Pzb7qW-21" target="vGQCpLOHaBzgd5Pzb7qW-28">
          <mxGeometry relative="1" as="geometry" />
        </mxCell>
        <mxCell id="vGQCpLOHaBzgd5Pzb7qW-21" value="Adószám" style="ellipse;whiteSpace=wrap;html=1;fontSize=10;" vertex="1" parent="1">
          <mxGeometry x="-320" y="40" width="60" height="30" as="geometry" />
        </mxCell>
        <mxCell id="vGQCpLOHaBzgd5Pzb7qW-22" value="" style="endArrow=none;html=1;rounded=0;entryX=0;entryY=1;entryDx=0;entryDy=0;exitX=0.5;exitY=0;exitDx=0;exitDy=0;fontSize=10;" edge="1" parent="1" source="vGQCpLOHaBzgd5Pzb7qW-16" target="vGQCpLOHaBzgd5Pzb7qW-2">
          <mxGeometry width="50" height="50" relative="1" as="geometry">
            <mxPoint x="-380" y="40" as="sourcePoint" />
            <mxPoint x="-330" y="-10" as="targetPoint" />
          </mxGeometry>
        </mxCell>
        <mxCell id="vGQCpLOHaBzgd5Pzb7qW-23" value="" style="endArrow=none;html=1;rounded=0;entryX=0.5;entryY=1;entryDx=0;entryDy=0;exitX=0.5;exitY=0;exitDx=0;exitDy=0;fontSize=10;" edge="1" parent="1" source="vGQCpLOHaBzgd5Pzb7qW-19" target="vGQCpLOHaBzgd5Pzb7qW-2">
          <mxGeometry width="50" height="50" relative="1" as="geometry">
            <mxPoint x="-380" y="40" as="sourcePoint" />
            <mxPoint x="-330" y="-10" as="targetPoint" />
          </mxGeometry>
        </mxCell>
        <mxCell id="vGQCpLOHaBzgd5Pzb7qW-24" value="" style="endArrow=none;html=1;rounded=0;exitX=0.5;exitY=0;exitDx=0;exitDy=0;entryX=1;entryY=1;entryDx=0;entryDy=0;fontSize=10;" edge="1" parent="1" source="vGQCpLOHaBzgd5Pzb7qW-21" target="vGQCpLOHaBzgd5Pzb7qW-2">
          <mxGeometry width="50" height="50" relative="1" as="geometry">
            <mxPoint x="-380" y="40" as="sourcePoint" />
            <mxPoint x="-330" y="-10" as="targetPoint" />
          </mxGeometry>
        </mxCell>
        <mxCell id="vGQCpLOHaBzgd5Pzb7qW-26" value="" style="rounded=0;whiteSpace=wrap;html=1;rotation=90;fontSize=10;" vertex="1" parent="1">
          <mxGeometry x="-505" y="95" width="30" height="20" as="geometry" />
        </mxCell>
        <mxCell id="vGQCpLOHaBzgd5Pzb7qW-28" value="" style="rounded=0;whiteSpace=wrap;html=1;rotation=90;fontSize=10;" vertex="1" parent="1">
          <mxGeometry x="-305" y="95" width="30" height="20" as="geometry" />
        </mxCell>
        <mxCell id="vGQCpLOHaBzgd5Pzb7qW-32" style="rounded=0;orthogonalLoop=1;jettySize=auto;html=1;exitX=1;exitY=1;exitDx=0;exitDy=0;endArrow=none;endFill=0;entryX=0.5;entryY=0;entryDx=0;entryDy=0;fontSize=10;" edge="1" parent="1" source="vGQCpLOHaBzgd5Pzb7qW-19" target="vGQCpLOHaBzgd5Pzb7qW-17">
          <mxGeometry relative="1" as="geometry">
            <mxPoint x="-311" y="174" as="targetPoint" />
          </mxGeometry>
        </mxCell>
        <mxCell id="vGQCpLOHaBzgd5Pzb7qW-50" style="rounded=0;orthogonalLoop=1;jettySize=auto;html=1;exitX=0.5;exitY=1;exitDx=0;exitDy=0;entryX=0;entryY=0.5;entryDx=0;entryDy=0;endArrow=none;endFill=0;fontSize=10;" edge="1" parent="1" source="vGQCpLOHaBzgd5Pzb7qW-51" target="vGQCpLOHaBzgd5Pzb7qW-63">
          <mxGeometry relative="1" as="geometry" />
        </mxCell>
        <mxCell id="vGQCpLOHaBzgd5Pzb7qW-51" value="Név" style="ellipse;whiteSpace=wrap;html=1;fontSize=10;" vertex="1" parent="1">
          <mxGeometry x="120" y="40" width="60" height="30" as="geometry" />
        </mxCell>
        <mxCell id="vGQCpLOHaBzgd5Pzb7qW-115" style="edgeStyle=orthogonalEdgeStyle;rounded=0;orthogonalLoop=1;jettySize=auto;html=1;exitX=0.5;exitY=1;exitDx=0;exitDy=0;entryX=0;entryY=0.5;entryDx=0;entryDy=0;endArrow=none;endFill=0;fontSize=10;" edge="1" parent="1" source="vGQCpLOHaBzgd5Pzb7qW-56" target="vGQCpLOHaBzgd5Pzb7qW-114">
          <mxGeometry relative="1" as="geometry" />
        </mxCell>
        <mxCell id="vGQCpLOHaBzgd5Pzb7qW-56" value="Életkor" style="ellipse;whiteSpace=wrap;html=1;fontSize=10;" vertex="1" parent="1">
          <mxGeometry x="220" y="40" width="60" height="30" as="geometry" />
        </mxCell>
        <mxCell id="vGQCpLOHaBzgd5Pzb7qW-58" style="rounded=0;orthogonalLoop=1;jettySize=auto;html=1;exitX=0.5;exitY=1;exitDx=0;exitDy=0;entryX=0;entryY=0.5;entryDx=0;entryDy=0;endArrow=none;endFill=0;fontSize=10;" edge="1" parent="1" source="vGQCpLOHaBzgd5Pzb7qW-59" target="vGQCpLOHaBzgd5Pzb7qW-64">
          <mxGeometry relative="1" as="geometry" />
        </mxCell>
        <mxCell id="vGQCpLOHaBzgd5Pzb7qW-59" value="Végzettség" style="ellipse;whiteSpace=wrap;html=1;fontSize=10;" vertex="1" parent="1">
          <mxGeometry x="320" y="40" width="60" height="30" as="geometry" />
        </mxCell>
        <mxCell id="vGQCpLOHaBzgd5Pzb7qW-60" value="" style="endArrow=none;html=1;rounded=0;entryX=0;entryY=1;entryDx=0;entryDy=0;exitX=0.5;exitY=0;exitDx=0;exitDy=0;fontSize=10;" edge="1" parent="1" source="vGQCpLOHaBzgd5Pzb7qW-51" target="vGQCpLOHaBzgd5Pzb7qW-6">
          <mxGeometry width="50" height="50" relative="1" as="geometry">
            <mxPoint x="260" y="40" as="sourcePoint" />
            <mxPoint x="229" y="-5" as="targetPoint" />
          </mxGeometry>
        </mxCell>
        <mxCell id="vGQCpLOHaBzgd5Pzb7qW-61" value="" style="endArrow=none;html=1;rounded=0;exitX=0.5;exitY=0;exitDx=0;exitDy=0;entryX=0.5;entryY=1;entryDx=0;entryDy=0;fontSize=10;" edge="1" parent="1" source="vGQCpLOHaBzgd5Pzb7qW-56" target="vGQCpLOHaBzgd5Pzb7qW-6">
          <mxGeometry width="50" height="50" relative="1" as="geometry">
            <mxPoint x="260" y="40" as="sourcePoint" />
            <mxPoint x="250" y="10" as="targetPoint" />
          </mxGeometry>
        </mxCell>
        <mxCell id="vGQCpLOHaBzgd5Pzb7qW-62" value="" style="endArrow=none;html=1;rounded=0;exitX=0.5;exitY=0;exitDx=0;exitDy=0;entryX=1;entryY=1;entryDx=0;entryDy=0;fontSize=10;" edge="1" parent="1" source="vGQCpLOHaBzgd5Pzb7qW-59" target="vGQCpLOHaBzgd5Pzb7qW-6">
          <mxGeometry width="50" height="50" relative="1" as="geometry">
            <mxPoint x="260" y="40" as="sourcePoint" />
            <mxPoint x="271" y="-5" as="targetPoint" />
          </mxGeometry>
        </mxCell>
        <mxCell id="vGQCpLOHaBzgd5Pzb7qW-63" value="" style="rounded=0;whiteSpace=wrap;html=1;rotation=90;fontSize=10;" vertex="1" parent="1">
          <mxGeometry x="135" y="95" width="30" height="20" as="geometry" />
        </mxCell>
        <mxCell id="vGQCpLOHaBzgd5Pzb7qW-64" value="" style="rounded=0;whiteSpace=wrap;html=1;rotation=90;fontSize=10;" vertex="1" parent="1">
          <mxGeometry x="335" y="95" width="30" height="20" as="geometry" />
        </mxCell>
        <mxCell id="vGQCpLOHaBzgd5Pzb7qW-66" style="rounded=0;orthogonalLoop=1;jettySize=auto;html=1;exitX=0.5;exitY=1;exitDx=0;exitDy=0;entryX=0;entryY=0.5;entryDx=0;entryDy=0;endArrow=none;endFill=0;fontSize=10;" edge="1" parent="1" source="vGQCpLOHaBzgd5Pzb7qW-67" target="vGQCpLOHaBzgd5Pzb7qW-79">
          <mxGeometry relative="1" as="geometry" />
        </mxCell>
        <mxCell id="vGQCpLOHaBzgd5Pzb7qW-67" value="Név" style="ellipse;whiteSpace=wrap;html=1;fontSize=10;" vertex="1" parent="1">
          <mxGeometry x="485" y="40" width="60" height="30" as="geometry" />
        </mxCell>
        <mxCell id="vGQCpLOHaBzgd5Pzb7qW-126" style="rounded=0;orthogonalLoop=1;jettySize=auto;html=1;exitX=0.5;exitY=1;exitDx=0;exitDy=0;entryX=0;entryY=0.5;entryDx=0;entryDy=0;endArrow=none;endFill=0;fontSize=10;" edge="1" parent="1" source="vGQCpLOHaBzgd5Pzb7qW-68" target="vGQCpLOHaBzgd5Pzb7qW-117">
          <mxGeometry relative="1" as="geometry" />
        </mxCell>
        <mxCell id="vGQCpLOHaBzgd5Pzb7qW-68" value="Időtartam" style="ellipse;whiteSpace=wrap;html=1;fontSize=10;" vertex="1" parent="1">
          <mxGeometry x="635" y="160" width="60" height="30" as="geometry" />
        </mxCell>
        <mxCell id="vGQCpLOHaBzgd5Pzb7qW-70" style="rounded=0;orthogonalLoop=1;jettySize=auto;html=1;exitX=0.5;exitY=1;exitDx=0;exitDy=0;endArrow=none;endFill=0;fontSize=10;" edge="1" parent="1" source="vGQCpLOHaBzgd5Pzb7qW-72" target="vGQCpLOHaBzgd5Pzb7qW-73">
          <mxGeometry relative="1" as="geometry" />
        </mxCell>
        <mxCell id="vGQCpLOHaBzgd5Pzb7qW-72" value="Gyakorlat" style="ellipse;whiteSpace=wrap;html=1;fontSize=10;" vertex="1" parent="1">
          <mxGeometry x="585" y="40" width="60" height="30" as="geometry" />
        </mxCell>
        <mxCell id="vGQCpLOHaBzgd5Pzb7qW-125" style="rounded=0;orthogonalLoop=1;jettySize=auto;html=1;exitX=0.5;exitY=1;exitDx=0;exitDy=0;entryX=0;entryY=0.5;entryDx=0;entryDy=0;endArrow=none;endFill=0;fontSize=10;" edge="1" parent="1" source="vGQCpLOHaBzgd5Pzb7qW-73" target="vGQCpLOHaBzgd5Pzb7qW-118">
          <mxGeometry relative="1" as="geometry" />
        </mxCell>
        <mxCell id="vGQCpLOHaBzgd5Pzb7qW-73" value="Kezdete" style="ellipse;whiteSpace=wrap;html=1;fontSize=10;" vertex="1" parent="1">
          <mxGeometry x="515" y="160" width="60" height="30" as="geometry" />
        </mxCell>
        <mxCell id="vGQCpLOHaBzgd5Pzb7qW-74" style="rounded=0;orthogonalLoop=1;jettySize=auto;html=1;exitX=0.5;exitY=1;exitDx=0;exitDy=0;entryX=0;entryY=0.5;entryDx=0;entryDy=0;endArrow=none;endFill=0;fontSize=10;" edge="1" parent="1" source="vGQCpLOHaBzgd5Pzb7qW-75" target="vGQCpLOHaBzgd5Pzb7qW-80">
          <mxGeometry relative="1" as="geometry" />
        </mxCell>
        <mxCell id="vGQCpLOHaBzgd5Pzb7qW-75" value="Életkor" style="ellipse;whiteSpace=wrap;html=1;fontSize=10;" vertex="1" parent="1">
          <mxGeometry x="685" y="40" width="60" height="30" as="geometry" />
        </mxCell>
        <mxCell id="vGQCpLOHaBzgd5Pzb7qW-76" value="" style="endArrow=none;html=1;rounded=0;entryX=0;entryY=1;entryDx=0;entryDy=0;exitX=0.5;exitY=0;exitDx=0;exitDy=0;fontSize=10;" edge="1" parent="1" source="vGQCpLOHaBzgd5Pzb7qW-67" target="vGQCpLOHaBzgd5Pzb7qW-7">
          <mxGeometry width="50" height="50" relative="1" as="geometry">
            <mxPoint x="625" y="40" as="sourcePoint" />
            <mxPoint x="594" y="-5" as="targetPoint" />
          </mxGeometry>
        </mxCell>
        <mxCell id="vGQCpLOHaBzgd5Pzb7qW-77" value="" style="endArrow=none;html=1;rounded=0;exitX=0.5;exitY=0;exitDx=0;exitDy=0;entryX=0.5;entryY=1;entryDx=0;entryDy=0;fontSize=10;" edge="1" parent="1" source="vGQCpLOHaBzgd5Pzb7qW-72" target="vGQCpLOHaBzgd5Pzb7qW-7">
          <mxGeometry width="50" height="50" relative="1" as="geometry">
            <mxPoint x="625" y="40" as="sourcePoint" />
            <mxPoint x="635" y="20" as="targetPoint" />
          </mxGeometry>
        </mxCell>
        <mxCell id="vGQCpLOHaBzgd5Pzb7qW-78" value="" style="endArrow=none;html=1;rounded=0;exitX=0.5;exitY=0;exitDx=0;exitDy=0;entryX=1;entryY=1;entryDx=0;entryDy=0;fontSize=10;" edge="1" parent="1" source="vGQCpLOHaBzgd5Pzb7qW-75" target="vGQCpLOHaBzgd5Pzb7qW-7">
          <mxGeometry width="50" height="50" relative="1" as="geometry">
            <mxPoint x="625" y="40" as="sourcePoint" />
            <mxPoint x="636" y="-5" as="targetPoint" />
          </mxGeometry>
        </mxCell>
        <mxCell id="vGQCpLOHaBzgd5Pzb7qW-79" value="" style="rounded=0;whiteSpace=wrap;html=1;rotation=90;fontSize=10;" vertex="1" parent="1">
          <mxGeometry x="500" y="95" width="30" height="20" as="geometry" />
        </mxCell>
        <mxCell id="vGQCpLOHaBzgd5Pzb7qW-80" value="" style="rounded=0;whiteSpace=wrap;html=1;rotation=90;fontSize=10;" vertex="1" parent="1">
          <mxGeometry x="700" y="95" width="30" height="20" as="geometry" />
        </mxCell>
        <mxCell id="vGQCpLOHaBzgd5Pzb7qW-81" style="rounded=0;orthogonalLoop=1;jettySize=auto;html=1;exitX=0.5;exitY=1;exitDx=0;exitDy=0;endArrow=none;endFill=0;entryX=0.5;entryY=0;entryDx=0;entryDy=0;fontSize=10;" edge="1" parent="1" source="vGQCpLOHaBzgd5Pzb7qW-72" target="vGQCpLOHaBzgd5Pzb7qW-68">
          <mxGeometry relative="1" as="geometry">
            <mxPoint x="694" y="174" as="targetPoint" />
          </mxGeometry>
        </mxCell>
        <mxCell id="vGQCpLOHaBzgd5Pzb7qW-82" style="rounded=0;orthogonalLoop=1;jettySize=auto;html=1;exitX=0.5;exitY=1;exitDx=0;exitDy=0;entryX=0;entryY=0.5;entryDx=0;entryDy=0;endArrow=none;endFill=0;fontSize=10;" edge="1" parent="1" source="vGQCpLOHaBzgd5Pzb7qW-83" target="vGQCpLOHaBzgd5Pzb7qW-95">
          <mxGeometry relative="1" as="geometry" />
        </mxCell>
        <mxCell id="vGQCpLOHaBzgd5Pzb7qW-83" value="Név" style="ellipse;whiteSpace=wrap;html=1;fontSize=10;" vertex="1" parent="1">
          <mxGeometry x="865" y="40" width="60" height="30" as="geometry" />
        </mxCell>
        <mxCell id="vGQCpLOHaBzgd5Pzb7qW-161" style="rounded=0;orthogonalLoop=1;jettySize=auto;html=1;exitX=0.5;exitY=1;exitDx=0;exitDy=0;endArrow=none;endFill=0;fontSize=10;" edge="1" parent="1" source="vGQCpLOHaBzgd5Pzb7qW-84" target="vGQCpLOHaBzgd5Pzb7qW-154">
          <mxGeometry relative="1" as="geometry" />
        </mxCell>
        <mxCell id="vGQCpLOHaBzgd5Pzb7qW-84" value="Házszám" style="ellipse;whiteSpace=wrap;html=1;fontSize=10;" vertex="1" parent="1">
          <mxGeometry x="1065" y="160" width="60" height="30" as="geometry" />
        </mxCell>
        <mxCell id="vGQCpLOHaBzgd5Pzb7qW-159" style="edgeStyle=orthogonalEdgeStyle;rounded=0;orthogonalLoop=1;jettySize=auto;html=1;exitX=0.5;exitY=1;exitDx=0;exitDy=0;endArrow=none;endFill=0;fontSize=10;" edge="1" parent="1" source="vGQCpLOHaBzgd5Pzb7qW-85" target="vGQCpLOHaBzgd5Pzb7qW-153">
          <mxGeometry relative="1" as="geometry" />
        </mxCell>
        <mxCell id="vGQCpLOHaBzgd5Pzb7qW-85" value="Város" style="ellipse;whiteSpace=wrap;html=1;fontSize=10;" vertex="1" parent="1">
          <mxGeometry x="865" y="160" width="60" height="30" as="geometry" />
        </mxCell>
        <mxCell id="vGQCpLOHaBzgd5Pzb7qW-86" style="edgeStyle=orthogonalEdgeStyle;rounded=0;orthogonalLoop=1;jettySize=auto;html=1;exitX=0.5;exitY=1;exitDx=0;exitDy=0;endArrow=none;endFill=0;fontSize=10;" edge="1" parent="1" source="vGQCpLOHaBzgd5Pzb7qW-88" target="vGQCpLOHaBzgd5Pzb7qW-89">
          <mxGeometry relative="1" as="geometry" />
        </mxCell>
        <mxCell id="vGQCpLOHaBzgd5Pzb7qW-87" style="rounded=0;orthogonalLoop=1;jettySize=auto;html=1;exitX=0;exitY=1;exitDx=0;exitDy=0;entryX=0.5;entryY=0;entryDx=0;entryDy=0;endArrow=none;endFill=0;fontSize=10;" edge="1" parent="1" source="vGQCpLOHaBzgd5Pzb7qW-88" target="vGQCpLOHaBzgd5Pzb7qW-85">
          <mxGeometry relative="1" as="geometry">
            <mxPoint x="995" y="100" as="targetPoint" />
          </mxGeometry>
        </mxCell>
        <mxCell id="vGQCpLOHaBzgd5Pzb7qW-88" value="Cím" style="ellipse;whiteSpace=wrap;html=1;fontSize=10;" vertex="1" parent="1">
          <mxGeometry x="965" y="40" width="60" height="30" as="geometry" />
        </mxCell>
        <mxCell id="vGQCpLOHaBzgd5Pzb7qW-160" style="rounded=0;orthogonalLoop=1;jettySize=auto;html=1;exitX=0.5;exitY=1;exitDx=0;exitDy=0;entryX=0;entryY=0.5;entryDx=0;entryDy=0;endArrow=none;endFill=0;fontSize=10;" edge="1" parent="1" source="vGQCpLOHaBzgd5Pzb7qW-89" target="vGQCpLOHaBzgd5Pzb7qW-155">
          <mxGeometry relative="1" as="geometry" />
        </mxCell>
        <mxCell id="vGQCpLOHaBzgd5Pzb7qW-89" value="Utca" style="ellipse;whiteSpace=wrap;html=1;fontSize=10;" vertex="1" parent="1">
          <mxGeometry x="965" y="160" width="60" height="30" as="geometry" />
        </mxCell>
        <mxCell id="vGQCpLOHaBzgd5Pzb7qW-90" style="rounded=0;orthogonalLoop=1;jettySize=auto;html=1;exitX=0.5;exitY=1;exitDx=0;exitDy=0;entryX=0;entryY=0.5;entryDx=0;entryDy=0;endArrow=none;endFill=0;fontSize=10;" edge="1" parent="1" source="vGQCpLOHaBzgd5Pzb7qW-91" target="vGQCpLOHaBzgd5Pzb7qW-96">
          <mxGeometry relative="1" as="geometry" />
        </mxCell>
        <mxCell id="vGQCpLOHaBzgd5Pzb7qW-91" value="Telefonszám" style="ellipse;whiteSpace=wrap;html=1;fontSize=10;" vertex="1" parent="1">
          <mxGeometry x="1065" y="40" width="60" height="30" as="geometry" />
        </mxCell>
        <mxCell id="vGQCpLOHaBzgd5Pzb7qW-92" value="" style="endArrow=none;html=1;rounded=0;entryX=0;entryY=1;entryDx=0;entryDy=0;exitX=0.5;exitY=0;exitDx=0;exitDy=0;fontSize=10;" edge="1" parent="1" source="vGQCpLOHaBzgd5Pzb7qW-83" target="vGQCpLOHaBzgd5Pzb7qW-8">
          <mxGeometry width="50" height="50" relative="1" as="geometry">
            <mxPoint x="1005" y="40" as="sourcePoint" />
            <mxPoint x="974" y="-5" as="targetPoint" />
          </mxGeometry>
        </mxCell>
        <mxCell id="vGQCpLOHaBzgd5Pzb7qW-93" value="" style="endArrow=none;html=1;rounded=0;exitX=0.5;exitY=0;exitDx=0;exitDy=0;entryX=0.5;entryY=1;entryDx=0;entryDy=0;fontSize=10;" edge="1" parent="1" source="vGQCpLOHaBzgd5Pzb7qW-88" target="vGQCpLOHaBzgd5Pzb7qW-8">
          <mxGeometry width="50" height="50" relative="1" as="geometry">
            <mxPoint x="1005" y="40" as="sourcePoint" />
            <mxPoint x="995" as="targetPoint" />
          </mxGeometry>
        </mxCell>
        <mxCell id="vGQCpLOHaBzgd5Pzb7qW-94" value="" style="endArrow=none;html=1;rounded=0;exitX=0.5;exitY=0;exitDx=0;exitDy=0;entryX=1;entryY=1;entryDx=0;entryDy=0;fontSize=10;" edge="1" parent="1" source="vGQCpLOHaBzgd5Pzb7qW-91" target="vGQCpLOHaBzgd5Pzb7qW-8">
          <mxGeometry width="50" height="50" relative="1" as="geometry">
            <mxPoint x="1005" y="40" as="sourcePoint" />
            <mxPoint x="1016" y="-5" as="targetPoint" />
          </mxGeometry>
        </mxCell>
        <mxCell id="vGQCpLOHaBzgd5Pzb7qW-95" value="" style="rounded=0;whiteSpace=wrap;html=1;rotation=90;fontSize=10;" vertex="1" parent="1">
          <mxGeometry x="880" y="95" width="30" height="20" as="geometry" />
        </mxCell>
        <mxCell id="vGQCpLOHaBzgd5Pzb7qW-96" value="" style="rounded=0;whiteSpace=wrap;html=1;rotation=90;fontSize=10;" vertex="1" parent="1">
          <mxGeometry x="1080" y="95" width="30" height="20" as="geometry" />
        </mxCell>
        <mxCell id="vGQCpLOHaBzgd5Pzb7qW-97" style="rounded=0;orthogonalLoop=1;jettySize=auto;html=1;exitX=1;exitY=1;exitDx=0;exitDy=0;endArrow=none;endFill=0;entryX=0.5;entryY=0;entryDx=0;entryDy=0;fontSize=10;" edge="1" parent="1" source="vGQCpLOHaBzgd5Pzb7qW-88" target="vGQCpLOHaBzgd5Pzb7qW-84">
          <mxGeometry relative="1" as="geometry">
            <mxPoint x="1074" y="174" as="targetPoint" />
          </mxGeometry>
        </mxCell>
        <mxCell id="vGQCpLOHaBzgd5Pzb7qW-98" style="rounded=0;orthogonalLoop=1;jettySize=auto;html=1;exitX=0.5;exitY=1;exitDx=0;exitDy=0;entryX=0;entryY=0.5;entryDx=0;entryDy=0;endArrow=none;endFill=0;fontSize=10;" edge="1" parent="1" source="vGQCpLOHaBzgd5Pzb7qW-99" target="vGQCpLOHaBzgd5Pzb7qW-111">
          <mxGeometry relative="1" as="geometry" />
        </mxCell>
        <mxCell id="vGQCpLOHaBzgd5Pzb7qW-99" value="Termék" style="ellipse;whiteSpace=wrap;html=1;fontSize=10;" vertex="1" parent="1">
          <mxGeometry x="1206" y="40" width="60" height="30" as="geometry" />
        </mxCell>
        <mxCell id="vGQCpLOHaBzgd5Pzb7qW-166" style="edgeStyle=orthogonalEdgeStyle;rounded=0;orthogonalLoop=1;jettySize=auto;html=1;exitX=0.5;exitY=1;exitDx=0;exitDy=0;endArrow=none;endFill=0;fontSize=10;" edge="1" parent="1" source="vGQCpLOHaBzgd5Pzb7qW-104" target="vGQCpLOHaBzgd5Pzb7qW-165">
          <mxGeometry relative="1" as="geometry" />
        </mxCell>
        <mxCell id="vGQCpLOHaBzgd5Pzb7qW-104" value="Összeg" style="ellipse;whiteSpace=wrap;html=1;fontSize=10;" vertex="1" parent="1">
          <mxGeometry x="1306" y="40" width="60" height="30" as="geometry" />
        </mxCell>
        <mxCell id="vGQCpLOHaBzgd5Pzb7qW-106" style="rounded=0;orthogonalLoop=1;jettySize=auto;html=1;exitX=0.5;exitY=1;exitDx=0;exitDy=0;entryX=0;entryY=0.5;entryDx=0;entryDy=0;endArrow=none;endFill=0;fontSize=10;" edge="1" parent="1" source="vGQCpLOHaBzgd5Pzb7qW-107" target="vGQCpLOHaBzgd5Pzb7qW-112">
          <mxGeometry relative="1" as="geometry" />
        </mxCell>
        <mxCell id="vGQCpLOHaBzgd5Pzb7qW-107" value="Dátum" style="ellipse;whiteSpace=wrap;html=1;fontSize=10;" vertex="1" parent="1">
          <mxGeometry x="1406" y="40" width="60" height="30" as="geometry" />
        </mxCell>
        <mxCell id="vGQCpLOHaBzgd5Pzb7qW-108" value="" style="endArrow=none;html=1;rounded=0;entryX=0;entryY=1;entryDx=0;entryDy=0;exitX=0.5;exitY=0;exitDx=0;exitDy=0;fontSize=10;" edge="1" parent="1" source="vGQCpLOHaBzgd5Pzb7qW-99" target="vGQCpLOHaBzgd5Pzb7qW-9">
          <mxGeometry width="50" height="50" relative="1" as="geometry">
            <mxPoint x="1346" y="40" as="sourcePoint" />
            <mxPoint x="1315" y="-5" as="targetPoint" />
          </mxGeometry>
        </mxCell>
        <mxCell id="vGQCpLOHaBzgd5Pzb7qW-109" value="" style="endArrow=none;html=1;rounded=0;entryX=0.5;entryY=1;entryDx=0;entryDy=0;exitX=0.5;exitY=0;exitDx=0;exitDy=0;fontSize=10;" edge="1" parent="1" source="vGQCpLOHaBzgd5Pzb7qW-104" target="vGQCpLOHaBzgd5Pzb7qW-9">
          <mxGeometry width="50" height="50" relative="1" as="geometry">
            <mxPoint x="1346" y="40" as="sourcePoint" />
            <mxPoint x="1336" as="targetPoint" />
          </mxGeometry>
        </mxCell>
        <mxCell id="vGQCpLOHaBzgd5Pzb7qW-110" value="" style="endArrow=none;html=1;rounded=0;exitX=0.5;exitY=0;exitDx=0;exitDy=0;entryX=1;entryY=1;entryDx=0;entryDy=0;fontSize=10;" edge="1" parent="1" source="vGQCpLOHaBzgd5Pzb7qW-107" target="vGQCpLOHaBzgd5Pzb7qW-9">
          <mxGeometry width="50" height="50" relative="1" as="geometry">
            <mxPoint x="1346" y="40" as="sourcePoint" />
            <mxPoint x="1357" y="-5" as="targetPoint" />
          </mxGeometry>
        </mxCell>
        <mxCell id="vGQCpLOHaBzgd5Pzb7qW-111" value="" style="rounded=0;whiteSpace=wrap;html=1;rotation=90;fontSize=10;" vertex="1" parent="1">
          <mxGeometry x="1221" y="95" width="30" height="20" as="geometry" />
        </mxCell>
        <mxCell id="vGQCpLOHaBzgd5Pzb7qW-112" value="" style="rounded=0;whiteSpace=wrap;html=1;rotation=90;fontSize=10;" vertex="1" parent="1">
          <mxGeometry x="1421" y="95" width="30" height="20" as="geometry" />
        </mxCell>
        <mxCell id="vGQCpLOHaBzgd5Pzb7qW-114" value="" style="rounded=0;whiteSpace=wrap;html=1;rotation=90;fontSize=10;" vertex="1" parent="1">
          <mxGeometry x="235" y="95" width="30" height="20" as="geometry" />
        </mxCell>
        <mxCell id="vGQCpLOHaBzgd5Pzb7qW-116" style="edgeStyle=orthogonalEdgeStyle;rounded=0;orthogonalLoop=1;jettySize=auto;html=1;exitX=0.5;exitY=1;exitDx=0;exitDy=0;fontSize=10;" edge="1" parent="1" source="vGQCpLOHaBzgd5Pzb7qW-73" target="vGQCpLOHaBzgd5Pzb7qW-73">
          <mxGeometry relative="1" as="geometry" />
        </mxCell>
        <mxCell id="vGQCpLOHaBzgd5Pzb7qW-117" value="" style="rounded=0;whiteSpace=wrap;html=1;rotation=90;fontSize=10;" vertex="1" parent="1">
          <mxGeometry x="650" y="230" width="30" height="20" as="geometry" />
        </mxCell>
        <mxCell id="vGQCpLOHaBzgd5Pzb7qW-118" value="" style="rounded=0;whiteSpace=wrap;html=1;rotation=90;fontSize=10;" vertex="1" parent="1">
          <mxGeometry x="530" y="230" width="30" height="20" as="geometry" />
        </mxCell>
        <mxCell id="vGQCpLOHaBzgd5Pzb7qW-119" value="" style="rounded=0;whiteSpace=wrap;html=1;rotation=90;fontSize=10;" vertex="1" parent="1">
          <mxGeometry x="-505" y="230" width="30" height="20" as="geometry" />
        </mxCell>
        <mxCell id="vGQCpLOHaBzgd5Pzb7qW-120" value="" style="rounded=0;whiteSpace=wrap;html=1;rotation=90;fontSize=10;" vertex="1" parent="1">
          <mxGeometry x="-305" y="230" width="30" height="20" as="geometry" />
        </mxCell>
        <mxCell id="vGQCpLOHaBzgd5Pzb7qW-121" value="" style="rounded=0;whiteSpace=wrap;html=1;rotation=90;fontSize=10;" vertex="1" parent="1">
          <mxGeometry x="-405" y="230" width="30" height="20" as="geometry" />
        </mxCell>
        <mxCell id="vGQCpLOHaBzgd5Pzb7qW-152" style="rounded=0;orthogonalLoop=1;jettySize=auto;html=1;exitX=1;exitY=0;exitDx=0;exitDy=0;entryX=0;entryY=1;entryDx=0;entryDy=0;endArrow=none;endFill=0;fontSize=10;" edge="1" parent="1" source="vGQCpLOHaBzgd5Pzb7qW-139" target="vGQCpLOHaBzgd5Pzb7qW-1">
          <mxGeometry relative="1" as="geometry" />
        </mxCell>
        <mxCell id="vGQCpLOHaBzgd5Pzb7qW-139" value="Műszak vezető" style="ellipse;whiteSpace=wrap;html=1;fontSize=10;" vertex="1" parent="1">
          <mxGeometry x="-120" y="-30" width="60" height="30" as="geometry" />
        </mxCell>
        <mxCell id="vGQCpLOHaBzgd5Pzb7qW-140" style="rounded=0;orthogonalLoop=1;jettySize=auto;html=1;exitX=0.5;exitY=1;exitDx=0;exitDy=0;entryX=0;entryY=0.5;entryDx=0;entryDy=0;endArrow=none;endFill=0;fontSize=10;" edge="1" parent="1" source="vGQCpLOHaBzgd5Pzb7qW-141" target="vGQCpLOHaBzgd5Pzb7qW-149">
          <mxGeometry relative="1" as="geometry" />
        </mxCell>
        <mxCell id="vGQCpLOHaBzgd5Pzb7qW-141" value="Név" style="ellipse;whiteSpace=wrap;html=1;fontSize=10;" vertex="1" parent="1">
          <mxGeometry x="-220" y="40" width="60" height="30" as="geometry" />
        </mxCell>
        <mxCell id="vGQCpLOHaBzgd5Pzb7qW-142" style="edgeStyle=orthogonalEdgeStyle;rounded=0;orthogonalLoop=1;jettySize=auto;html=1;exitX=0.5;exitY=1;exitDx=0;exitDy=0;entryX=0;entryY=0.5;entryDx=0;entryDy=0;endArrow=none;endFill=0;fontSize=10;" edge="1" parent="1" source="vGQCpLOHaBzgd5Pzb7qW-143" target="vGQCpLOHaBzgd5Pzb7qW-151">
          <mxGeometry relative="1" as="geometry" />
        </mxCell>
        <mxCell id="vGQCpLOHaBzgd5Pzb7qW-143" value="Életkor" style="ellipse;whiteSpace=wrap;html=1;fontSize=10;" vertex="1" parent="1">
          <mxGeometry x="-120" y="40" width="60" height="30" as="geometry" />
        </mxCell>
        <mxCell id="vGQCpLOHaBzgd5Pzb7qW-144" style="rounded=0;orthogonalLoop=1;jettySize=auto;html=1;exitX=0.5;exitY=1;exitDx=0;exitDy=0;entryX=0;entryY=0.5;entryDx=0;entryDy=0;endArrow=none;endFill=0;fontSize=10;" edge="1" parent="1" source="vGQCpLOHaBzgd5Pzb7qW-145" target="vGQCpLOHaBzgd5Pzb7qW-150">
          <mxGeometry relative="1" as="geometry" />
        </mxCell>
        <mxCell id="vGQCpLOHaBzgd5Pzb7qW-145" value="Végzettség" style="ellipse;whiteSpace=wrap;html=1;fontSize=10;" vertex="1" parent="1">
          <mxGeometry x="-20" y="40" width="60" height="30" as="geometry" />
        </mxCell>
        <mxCell id="vGQCpLOHaBzgd5Pzb7qW-146" value="" style="endArrow=none;html=1;rounded=0;entryX=0;entryY=1;entryDx=0;entryDy=0;exitX=0.5;exitY=0;exitDx=0;exitDy=0;fontSize=10;" edge="1" parent="1" source="vGQCpLOHaBzgd5Pzb7qW-141" target="vGQCpLOHaBzgd5Pzb7qW-139">
          <mxGeometry width="50" height="50" relative="1" as="geometry">
            <mxPoint x="-80" y="40" as="sourcePoint" />
            <mxPoint x="-111" y="-5" as="targetPoint" />
          </mxGeometry>
        </mxCell>
        <mxCell id="vGQCpLOHaBzgd5Pzb7qW-147" value="" style="endArrow=none;html=1;rounded=0;exitX=0.5;exitY=0;exitDx=0;exitDy=0;entryX=0.5;entryY=1;entryDx=0;entryDy=0;fontSize=10;" edge="1" parent="1" source="vGQCpLOHaBzgd5Pzb7qW-143" target="vGQCpLOHaBzgd5Pzb7qW-139">
          <mxGeometry width="50" height="50" relative="1" as="geometry">
            <mxPoint x="-80" y="40" as="sourcePoint" />
            <mxPoint x="-90" y="10" as="targetPoint" />
          </mxGeometry>
        </mxCell>
        <mxCell id="vGQCpLOHaBzgd5Pzb7qW-148" value="" style="endArrow=none;html=1;rounded=0;exitX=0.5;exitY=0;exitDx=0;exitDy=0;entryX=1;entryY=1;entryDx=0;entryDy=0;fontSize=10;" edge="1" parent="1" source="vGQCpLOHaBzgd5Pzb7qW-145" target="vGQCpLOHaBzgd5Pzb7qW-139">
          <mxGeometry width="50" height="50" relative="1" as="geometry">
            <mxPoint x="-80" y="40" as="sourcePoint" />
            <mxPoint x="-69" y="-5" as="targetPoint" />
          </mxGeometry>
        </mxCell>
        <mxCell id="vGQCpLOHaBzgd5Pzb7qW-149" value="" style="rounded=0;whiteSpace=wrap;html=1;rotation=90;fontSize=10;" vertex="1" parent="1">
          <mxGeometry x="-205" y="95" width="30" height="20" as="geometry" />
        </mxCell>
        <mxCell id="vGQCpLOHaBzgd5Pzb7qW-150" value="" style="rounded=0;whiteSpace=wrap;html=1;rotation=90;fontSize=10;" vertex="1" parent="1">
          <mxGeometry x="-5" y="95" width="30" height="20" as="geometry" />
        </mxCell>
        <mxCell id="vGQCpLOHaBzgd5Pzb7qW-151" value="" style="rounded=0;whiteSpace=wrap;html=1;rotation=90;fontSize=10;" vertex="1" parent="1">
          <mxGeometry x="-105" y="95" width="30" height="20" as="geometry" />
        </mxCell>
        <mxCell id="vGQCpLOHaBzgd5Pzb7qW-153" value="" style="rounded=0;whiteSpace=wrap;html=1;rotation=90;fontSize=10;" vertex="1" parent="1">
          <mxGeometry x="880" y="230" width="30" height="20" as="geometry" />
        </mxCell>
        <mxCell id="vGQCpLOHaBzgd5Pzb7qW-154" value="" style="rounded=0;whiteSpace=wrap;html=1;rotation=90;fontSize=10;" vertex="1" parent="1">
          <mxGeometry x="1080" y="230" width="30" height="20" as="geometry" />
        </mxCell>
        <mxCell id="vGQCpLOHaBzgd5Pzb7qW-155" value="" style="rounded=0;whiteSpace=wrap;html=1;rotation=90;fontSize=10;" vertex="1" parent="1">
          <mxGeometry x="980" y="230" width="30" height="20" as="geometry" />
        </mxCell>
        <mxCell id="vGQCpLOHaBzgd5Pzb7qW-165" value="" style="rounded=0;whiteSpace=wrap;html=1;rotation=90;fontSize=10;" vertex="1" parent="1">
          <mxGeometry x="1321" y="95" width="30" height="20" as="geometry" />
        </mxCell>
        <mxCell id="vGQCpLOHaBzgd5Pzb7qW-167" value="&lt;font style=&quot;font-size: 10px;&quot;&gt;Gyarkod&lt;/font&gt;" style="rhombus;whiteSpace=wrap;html=1;" vertex="1" parent="1">
          <mxGeometry x="-600" y="-40" width="55" height="50" as="geometry" />
        </mxCell>
        <mxCell id="vGQCpLOHaBzgd5Pzb7qW-173" style="edgeStyle=orthogonalEdgeStyle;rounded=0;orthogonalLoop=1;jettySize=auto;html=1;exitX=1;exitY=0.5;exitDx=0;exitDy=0;entryX=0;entryY=0.5;entryDx=0;entryDy=0;endArrow=none;endFill=0;" edge="1" parent="1" source="vGQCpLOHaBzgd5Pzb7qW-169" target="vGQCpLOHaBzgd5Pzb7qW-139">
          <mxGeometry relative="1" as="geometry" />
        </mxCell>
        <mxCell id="vGQCpLOHaBzgd5Pzb7qW-169" value="&lt;font style=&quot;font-size: 10px;&quot;&gt;M_kod&lt;/font&gt;" style="rhombus;whiteSpace=wrap;html=1;" vertex="1" parent="1">
          <mxGeometry x="-220" y="-40" width="55" height="50" as="geometry" />
        </mxCell>
        <mxCell id="vGQCpLOHaBzgd5Pzb7qW-174" style="edgeStyle=orthogonalEdgeStyle;rounded=0;orthogonalLoop=1;jettySize=auto;html=1;exitX=1;exitY=0.5;exitDx=0;exitDy=0;endArrow=none;endFill=0;" edge="1" parent="1" source="vGQCpLOHaBzgd5Pzb7qW-170" target="vGQCpLOHaBzgd5Pzb7qW-6">
          <mxGeometry relative="1" as="geometry" />
        </mxCell>
        <mxCell id="vGQCpLOHaBzgd5Pzb7qW-170" value="&lt;font style=&quot;font-size: 10px;&quot;&gt;Sz_kod&lt;/font&gt;" style="rhombus;whiteSpace=wrap;html=1;" vertex="1" parent="1">
          <mxGeometry x="110" y="-40" width="55" height="50" as="geometry" />
        </mxCell>
        <mxCell id="vGQCpLOHaBzgd5Pzb7qW-175" style="edgeStyle=orthogonalEdgeStyle;rounded=0;orthogonalLoop=1;jettySize=auto;html=1;exitX=1;exitY=0.5;exitDx=0;exitDy=0;entryX=0;entryY=0.5;entryDx=0;entryDy=0;endArrow=none;endFill=0;" edge="1" parent="1" target="vGQCpLOHaBzgd5Pzb7qW-7">
          <mxGeometry relative="1" as="geometry">
            <mxPoint x="515" y="-15" as="sourcePoint" />
          </mxGeometry>
        </mxCell>
        <mxCell id="vGQCpLOHaBzgd5Pzb7qW-177" value="" style="edgeStyle=orthogonalEdgeStyle;rounded=0;orthogonalLoop=1;jettySize=auto;html=1;endArrow=none;endFill=0;" edge="1" parent="1" source="vGQCpLOHaBzgd5Pzb7qW-171">
          <mxGeometry relative="1" as="geometry">
            <mxPoint x="585" y="-15" as="targetPoint" />
          </mxGeometry>
        </mxCell>
        <mxCell id="vGQCpLOHaBzgd5Pzb7qW-171" value="&lt;font style=&quot;font-size: 10px;&quot;&gt;Gy_kod&lt;/font&gt;" style="rhombus;whiteSpace=wrap;html=1;" vertex="1" parent="1">
          <mxGeometry x="440" y="-40" width="55" height="50" as="geometry" />
        </mxCell>
        <mxCell id="vGQCpLOHaBzgd5Pzb7qW-176" style="rounded=0;orthogonalLoop=1;jettySize=auto;html=1;exitX=0;exitY=0.5;exitDx=0;exitDy=0;entryX=1;entryY=0.5;entryDx=0;entryDy=0;endArrow=none;endFill=0;" edge="1" parent="1" source="vGQCpLOHaBzgd5Pzb7qW-172" target="vGQCpLOHaBzgd5Pzb7qW-8">
          <mxGeometry relative="1" as="geometry" />
        </mxCell>
        <mxCell id="vGQCpLOHaBzgd5Pzb7qW-172" value="&lt;font style=&quot;font-size: 10px;&quot;&gt;Mkod&lt;/font&gt;" style="rhombus;whiteSpace=wrap;html=1;" vertex="1" parent="1">
          <mxGeometry x="1070" y="-35" width="55" height="50" as="geometry" />
        </mxCell>
        <mxCell id="vGQCpLOHaBzgd5Pzb7qW-179" value="" style="edgeStyle=orthogonalEdgeStyle;rounded=0;orthogonalLoop=1;jettySize=auto;html=1;endArrow=none;endFill=0;" edge="1" parent="1" source="vGQCpLOHaBzgd5Pzb7qW-178" target="vGQCpLOHaBzgd5Pzb7qW-139">
          <mxGeometry relative="1" as="geometry" />
        </mxCell>
        <mxCell id="vGQCpLOHaBzgd5Pzb7qW-180" style="edgeStyle=orthogonalEdgeStyle;rounded=0;orthogonalLoop=1;jettySize=auto;html=1;exitX=0.5;exitY=1;exitDx=0;exitDy=0;entryX=0.5;entryY=1;entryDx=0;entryDy=0;dashed=1;" edge="1" parent="1" source="vGQCpLOHaBzgd5Pzb7qW-178" target="vGQCpLOHaBzgd5Pzb7qW-167">
          <mxGeometry relative="1" as="geometry">
            <Array as="points">
              <mxPoint x="48" y="280" />
              <mxPoint x="-572" y="280" />
            </Array>
          </mxGeometry>
        </mxCell>
        <mxCell id="vGQCpLOHaBzgd5Pzb7qW-178" value="&lt;font style=&quot;font-size: 10px;&quot;&gt;Gyar-M&lt;/font&gt;" style="rhombus;whiteSpace=wrap;html=1;" vertex="1" parent="1">
          <mxGeometry x="20" y="-40" width="55" height="50" as="geometry" />
        </mxCell>
        <mxCell id="vGQCpLOHaBzgd5Pzb7qW-182" value="" style="edgeStyle=orthogonalEdgeStyle;rounded=0;orthogonalLoop=1;jettySize=auto;html=1;endArrow=none;endFill=0;" edge="1" parent="1" source="vGQCpLOHaBzgd5Pzb7qW-181" target="vGQCpLOHaBzgd5Pzb7qW-6">
          <mxGeometry relative="1" as="geometry" />
        </mxCell>
        <mxCell id="vGQCpLOHaBzgd5Pzb7qW-183" style="edgeStyle=orthogonalEdgeStyle;rounded=0;orthogonalLoop=1;jettySize=auto;html=1;exitX=0.5;exitY=1;exitDx=0;exitDy=0;entryX=0.5;entryY=1;entryDx=0;entryDy=0;dashed=1;" edge="1" parent="1" source="vGQCpLOHaBzgd5Pzb7qW-181" target="vGQCpLOHaBzgd5Pzb7qW-167">
          <mxGeometry relative="1" as="geometry">
            <Array as="points">
              <mxPoint x="388" y="290" />
              <mxPoint x="-572" y="290" />
            </Array>
          </mxGeometry>
        </mxCell>
        <mxCell id="vGQCpLOHaBzgd5Pzb7qW-181" value="&lt;font style=&quot;font-size: 10px;&quot;&gt;Gyar-Sz&lt;/font&gt;" style="rhombus;whiteSpace=wrap;html=1;" vertex="1" parent="1">
          <mxGeometry x="360" y="-40" width="55" height="50" as="geometry" />
        </mxCell>
        <mxCell id="vGQCpLOHaBzgd5Pzb7qW-185" value="" style="edgeStyle=orthogonalEdgeStyle;rounded=0;orthogonalLoop=1;jettySize=auto;html=1;endArrow=none;endFill=0;" edge="1" parent="1" source="vGQCpLOHaBzgd5Pzb7qW-184" target="vGQCpLOHaBzgd5Pzb7qW-7">
          <mxGeometry relative="1" as="geometry" />
        </mxCell>
        <mxCell id="vGQCpLOHaBzgd5Pzb7qW-186" style="edgeStyle=orthogonalEdgeStyle;rounded=0;orthogonalLoop=1;jettySize=auto;html=1;exitX=0.5;exitY=1;exitDx=0;exitDy=0;entryX=0.5;entryY=1;entryDx=0;entryDy=0;dashed=1;" edge="1" parent="1" source="vGQCpLOHaBzgd5Pzb7qW-184" target="vGQCpLOHaBzgd5Pzb7qW-167">
          <mxGeometry relative="1" as="geometry">
            <Array as="points">
              <mxPoint x="757" y="310" />
              <mxPoint x="-573" y="310" />
            </Array>
          </mxGeometry>
        </mxCell>
        <mxCell id="vGQCpLOHaBzgd5Pzb7qW-184" value="&lt;font style=&quot;font-size: 10px;&quot;&gt;Gyar-Gy&lt;/font&gt;" style="rhombus;whiteSpace=wrap;html=1;" vertex="1" parent="1">
          <mxGeometry x="730" y="-40" width="55" height="50" as="geometry" />
        </mxCell>
        <mxCell id="vGQCpLOHaBzgd5Pzb7qW-188" value="" style="edgeStyle=orthogonalEdgeStyle;rounded=0;orthogonalLoop=1;jettySize=auto;html=1;endArrow=none;endFill=0;" edge="1" parent="1" source="vGQCpLOHaBzgd5Pzb7qW-187" target="vGQCpLOHaBzgd5Pzb7qW-9">
          <mxGeometry relative="1" as="geometry" />
        </mxCell>
        <mxCell id="vGQCpLOHaBzgd5Pzb7qW-189" style="edgeStyle=orthogonalEdgeStyle;rounded=0;orthogonalLoop=1;jettySize=auto;html=1;exitX=0.5;exitY=1;exitDx=0;exitDy=0;entryX=0.5;entryY=1;entryDx=0;entryDy=0;dashed=1;endArrow=block;endFill=1;" edge="1" parent="1" source="vGQCpLOHaBzgd5Pzb7qW-187" target="vGQCpLOHaBzgd5Pzb7qW-167">
          <mxGeometry relative="1" as="geometry">
            <Array as="points">
              <mxPoint x="1479" y="330" />
              <mxPoint x="-572" y="330" />
            </Array>
          </mxGeometry>
        </mxCell>
        <mxCell id="vGQCpLOHaBzgd5Pzb7qW-187" value="&lt;font style=&quot;font-size: 10px;&quot;&gt;Rkod&lt;/font&gt;" style="rhombus;whiteSpace=wrap;html=1;" vertex="1" parent="1">
          <mxGeometry x="1451" y="-40" width="55" height="50" as="geometry" />
        </mxCell>
        <mxCell id="vGQCpLOHaBzgd5Pzb7qW-191" value="" style="edgeStyle=orthogonalEdgeStyle;rounded=0;orthogonalLoop=1;jettySize=auto;html=1;dashed=1;endArrow=block;endFill=1;" edge="1" parent="1" source="vGQCpLOHaBzgd5Pzb7qW-190" target="vGQCpLOHaBzgd5Pzb7qW-172">
          <mxGeometry relative="1" as="geometry" />
        </mxCell>
        <mxCell id="vGQCpLOHaBzgd5Pzb7qW-192" style="rounded=0;orthogonalLoop=1;jettySize=auto;html=1;exitX=1;exitY=0.5;exitDx=0;exitDy=0;entryX=0;entryY=0.5;entryDx=0;entryDy=0;endArrow=none;endFill=0;" edge="1" parent="1" source="vGQCpLOHaBzgd5Pzb7qW-190" target="vGQCpLOHaBzgd5Pzb7qW-9">
          <mxGeometry relative="1" as="geometry" />
        </mxCell>
        <mxCell id="vGQCpLOHaBzgd5Pzb7qW-190" value="&lt;font style=&quot;font-size: 10px;&quot;&gt;Gyar_M_R&lt;/font&gt;" style="rhombus;whiteSpace=wrap;html=1;" vertex="1" parent="1">
          <mxGeometry x="1170" y="-40" width="60" height="60" as="geometry" />
        </mxCell>
      </root>
    </mxGraphModel>
  </diagram>
</mxfile>
